# xmcd
# 
# Track frame offsets:
#     150
#     16610
#     36449
#     58087
#     73814
#     93020
#     106858
#     114145
#     128789
#     149416
#     171071
# 
# Disc length: 2561
# 
# Revision: 0
# Processed by: cddbd v1.5.2PL0 Copyright (c) Steve Scherf et al.
# Submitted via: BonkEnc v1.0.8
# 
DISCID=8b09ff0b
DTITLE=U2 - Boy
DYEAR=1980
DGENRE=Rock
TTITLE0=I Will Follow
TTITLE1=Twilight
TTITLE2=An Cat Dubh
TTITLE3=Into The Heart
TTITLE4=Out Of Control
TTITLE5=Stories For Boys
TTITLE6=The Ocean
TTITLE7=A Day Without Me
TTITLE8=Another Time, Another Place
TTITLE9=The Electric Co
TTITLE10=Shadows And Tall Trees
EXTD=YEAR: 1980
EXTT0=
EXTT1=
EXTT2=
EXTT3=
EXTT4=
EXTT5=
EXTT6=
EXTT7=
EXTT8=
EXTT9=
EXTT10=
PLAYORDER=
